<?xml version="1.0" encoding="UTF-8"?>
<svg version="1.1" xmlns="http://www.w3.org/2000/svg" width="1280" height="1212">
<path d="M0 0 C2.15054879 0.27258924 4.30235183 0.53319745 6.45452881 0.79260254 C26.20118501 3.1969238 45.75641042 6.35727383 65.21380615 10.5045166 C68.51874625 11.15686315 71.80742934 11.69625896 75.13827515 12.18501282 C95.18873242 15.1774869 95.18873242 15.1774869 99.78509521 20.17004395 C102.47489758 24.96523183 103.18868858 30.00997414 103.71673584 35.42150879 C104.03190869 38.33535207 104.55852143 41.13187473 105.16400146 43.99865723 C108.61164586 60.46323397 109.17379555 76.49309811 109.02337646 93.25646973 C110.13132568 92.11371582 110.13132568 92.11371582 111.26165771 90.94787598 C117.83980022 84.22646886 124.6011343 78.05317952 132.02337646 72.25646973 C133.04173584 71.43275879 134.06009521 70.60904785 135.10931396 69.76037598 C149.52911041 58.20517748 165.51712376 48.13123477 184.7723999 49.80090332 C189.79169637 50.81673924 194.39396087 53.12909817 199.02337646 55.25646973 C199.98566162 55.69402588 200.94794678 56.13158203 201.93939209 56.58239746 C252.52409003 79.94138213 300.25327669 110.46252647 342.44476318 146.90002441 C344.07783373 148.30326288 345.72292256 149.69124911 347.37103271 151.07678223 C361.25408443 162.78302822 374.23357325 175.3776916 387.08587646 188.19396973 C387.89733627 189.00141129 387.89733627 189.00141129 388.72518921 189.82516479 C394.71175724 195.7892094 400.53981418 201.82056415 406.02337646 208.25646973 C407.47783164 209.86415345 408.93558541 211.46886687 410.39837646 213.06896973 C414.24143944 217.3325699 417.9166038 221.70199246 421.52337646 226.16662598 C423.34341219 228.41607638 425.17556528 230.65120765 427.02337646 232.87756348 C434.562288 241.99660331 441.61804712 251.38081455 448.45013428 261.03918457 C449.96070236 263.16813853 451.48578162 265.28582729 453.01556396 267.40100098 C503.76516992 337.89217001 538.26486225 420.11487467 568.22650146 614.76818848 C568.23348063 616.21857227 568.24052159 617.66895577 568.24761963 619.11933899 C568.26689262 623.72755311 568.27179513 628.33571968 568.27337646 632.94396973 C568.27426018 634.12021408 568.27426018 634.12021408 568.27516174 635.32022095 C568.2876034 658.76899275 567.91580196 681.95654696 565.02337646 705.25646973 C564.87884033 706.51910645 564.7343042 707.78174316 564.58538818 709.0826416 C554.98235151 792.84068908 528.65906896 876.2349693 483.02337646 954.25646973 C482.05413012 955.9228478 481.08537519 957.58951179 480.11712646 959.25646973 C465.56793603 984.09888161 449.06550419 1007.82867963 431.02337646 1030.25646973 C430.4971167 1030.91421387 429.97085693 1031.57195801 429.4286499 1032.24963379 C423.45969457 1039.70469427 417.44579481 1047.07049638 410.98822021 1054.11193848 C409.19399216 1056.07025101 407.4464241 1058.0587311 405.71087646 1060.06896973 C397.16826685 1069.8155713 388.25285379 1079.1460098 379.11975098 1088.33633423 C378.02944058 1089.43404601 376.94072647 1090.53334605 375.85375977 1091.6343689 C366.85512727 1100.73837952 357.51857179 1109.28207635 346.77337646 1116.31896973 C345.83050781 1116.93820312 345.83050781 1116.93820312 344.86859131 1117.56994629 C324.95165979 1130.44483758 301.98192939 1139.47261949 278.02337646 1140.25646973 C276.90060303 1140.29643066 275.77782959 1140.3363916 274.62103271 1140.37756348 C254.80611115 1140.73103007 235.7575583 1137.13956084 217.29290771 1130.01428223 C210.31029356 1128.39585075 204.41340632 1133.16398789 198.52337646 1136.50646973 C122.06627115 1178.91414103 34.00018477 1200.34117804 -58.97662354 1203.25646973 C-59.77825928 1203.27983398 -60.57989502 1203.30319824 -61.40582275 1203.32727051 C-114.2061571 1204.68816282 -170.7857508 1198.47249476 -221.23809814 1182.37463379 C-233.14689285 1178.58687197 -244.30867189 1177.34359822 -256.76177979 1176.70178223 C-351.09397273 1171.60135935 -446.55208922 1129.26601749 -534.13726807 1065.66955566 C-535.99921782 1064.23911165 -537.87541762 1062.82907994 -539.75396729 1061.42053223 C-546.96932538 1055.95714911 -553.22162468 1050.30040742 -558.97662354 1043.25646973 C-559.883479 1042.16012207 -559.883479 1042.16012207 -560.80865479 1041.04162598 C-562.89635837 1038.4704542 -564.93712188 1035.86608167 -566.97662354 1033.25646973 C-568.04026283 1031.91128891 -569.10407962 1030.56624843 -570.16802979 1029.22131348 C-587.66361651 1007.01791221 -603.59490234 983.59357244 -617.97662354 959.25646973 C-618.43714111 958.47964844 -618.89765869 957.70282715 -619.37213135 956.90246582 C-663.53089809 882.0383743 -691.70064851 798.29860541 -706.17974854 653.74475098 C-706.18677013 652.29464182 -706.19385695 650.84453298 -706.20100403 649.39442444 C-706.22040469 644.78593501 -706.22543807 640.17749588 -706.22662354 635.56896973 C-706.22706539 634.78392311 -706.22750725 633.9988765 -706.22796249 633.19004059 C-706.23488489 609.74361496 -705.92633137 586.54908947 -702.97662354 563.25646973 C-702.8023831 561.80638234 -702.62907181 560.35618307 -702.456604 558.90588379 C-692.27879146 474.16085056 -665.99944548 390.57955403 -622.52838135 316.8951416 C-620.93644731 314.18815244 -619.3727911 311.4662128 -617.81256104 308.74084473 C-610.16021855 295.4650397 -601.77584259 282.79644431 -592.97662354 270.25646973 C-592.50627686 269.58148438 -592.03593018 268.90649902 -591.55133057 268.21105957 C-575.86030285 245.71127844 -558.43404099 224.53193433 -539.97662354 204.25646973 C-539.19255127 203.38756104 -538.408479 202.51865234 -537.60064697 201.62341309 C-531.07626122 194.43459813 -524.35510889 187.47860565 -517.47784424 180.62731934 C-515.77638576 178.93127246 -514.08041091 177.22987152 -512.38482666 175.5279541 C-506.74953199 169.88922418 -501.05525513 164.42107614 -494.97662354 159.25646973 C-493.36893981 157.80201456 -491.76422639 156.34426078 -490.16412354 154.88146973 C-485.90052336 151.03840675 -481.5311008 147.36324239 -477.06646729 143.75646973 C-474.81701688 141.936434 -472.58188562 140.10428091 -470.35552979 138.25646973 C-461.2406386 130.72098797 -451.8609568 123.66765471 -442.20709229 116.83850098 C-440.03917362 115.30083538 -437.88182472 113.74939322 -435.72662354 112.19396973 C-359.1237504 57.14346673 -269.22877683 21.48409441 -143.722229 0.67834473 C-141.25096542 0.40000139 -138.78113234 0.10860676 -136.31304932 -0.19665527 C-92.09666037 -5.55551761 -44.19026491 -5.6273076 0 0 Z " fill="#475D5D" transform="translate(708.9766235351563,5.7435302734375)"/>
<path d="M0 0 C2.15054879 0.27258924 4.30235183 0.53319745 6.45452881 0.79260254 C26.20118501 3.1969238 45.75641042 6.35727383 65.21380615 10.5045166 C68.51874625 11.15686315 71.80742934 11.69625896 75.13827515 12.18501282 C95.18873242 15.1774869 95.18873242 15.1774869 99.78509521 20.17004395 C102.47327644 24.96234179 103.18529794 30.0001955 103.71234131 35.4083252 C104.03506507 38.36350211 104.57839433 41.19771472 105.19915771 44.10412598 C111.93005484 76.20388426 102.40497875 107.91483419 85.02337646 135.25646973 C78.5893309 144.63518521 70.85579438 153.04022735 63.02337646 161.25646973 C62.33630615 161.98479004 61.64923584 162.71311035 60.94134521 163.46350098 C55.6959302 168.87984602 49.95616162 173.61620324 44.02337646 178.25646973 C43.44055908 178.71569824 42.8577417 179.17492676 42.25726318 179.64807129 C31.98763435 187.69687607 21.30255097 194.70813961 10.02337646 201.25646973 C9.31519775 201.67106445 8.60701904 202.08565918 7.87738037 202.51281738 C-14.70889843 215.66425551 -38.57074996 226.0129207 -62.97662354 235.25646973 C-64.16868408 235.70844727 -65.36074463 236.1604248 -66.58892822 236.62609863 C-112.44315925 253.81672808 -160.0291427 265.92808701 -207.35552979 278.27209473 C-301.75140709 302.73044295 -301.75140709 302.73044295 -391.97662354 339.25646973 C-392.8751001 339.68524414 -393.77357666 340.11401855 -394.69927979 340.55578613 C-437.02933533 360.76665282 -480.01285436 390.20124542 -507.79840088 428.63391113 C-508.98678774 430.2704671 -510.20679822 431.8790826 -511.43365479 433.48693848 C-531.37706012 460.01531935 -544.07856366 490.95654954 -550.97662354 523.25646973 C-551.13872314 523.95457764 -551.30082275 524.65268555 -551.46783447 525.37194824 C-555.99743307 544.95491286 -556.25615372 564.56547371 -556.22662354 584.56896973 C-556.2253244 586.26290359 -556.2253244 586.26290359 -556.22399902 587.99105835 C-556.21756675 591.24239603 -556.20138712 594.49348157 -556.17974854 597.74475098 C-556.17317734 599.22296829 -556.17317734 599.22296829 -556.16647339 600.73104858 C-556.15699677 601.64862946 -556.14752014 602.56621033 -556.13775635 603.51159668 C-556.13092834 604.31031693 -556.12410034 605.10903717 -556.11706543 605.93196106 C-555.96507949 608.44753969 -555.49500865 610.79271283 -554.97662354 613.25646973 C-554.81665723 615.41755304 -554.68346112 617.58070812 -554.57037354 619.74475098 C-554.09301263 626.79959434 -552.98544561 633.5421451 -551.47662354 640.44396973 C-551.21454102 641.64303955 -550.9524585 642.84210937 -550.68243408 644.07751465 C-542.97144243 677.93459054 -528.74051266 709.12717738 -506.97662354 736.25646973 C-506.17224854 737.2645166 -505.36787354 738.27256348 -504.53912354 739.31115723 C-494.0275742 752.22244934 -482.17201055 764.10025348 -468.97662354 774.25646973 C-468.00982666 775.04021973 -467.04302979 775.82396973 -466.04693604 776.63146973 C-427.23721939 807.85132097 -377.89562687 824.32095708 -328.97662354 830.25646973 C-328.20123734 830.35174957 -327.42585114 830.44702942 -326.62696838 830.54519653 C-309.33303891 832.58927305 -292.05370823 832.57333556 -274.66986084 832.51381302 C-272.26324122 832.50638989 -269.85664148 832.50276362 -267.45001221 832.50009155 C-237.92539858 832.46065533 -208.35347343 832.06322483 -178.89190674 829.97570801 C-164.66307662 828.99733772 -150.42134924 829.01068169 -136.16412354 829.00646973 C-135.47878918 829.00602787 -134.79345482 829.00558601 -134.08735275 829.00513077 C-82.62299684 828.98775517 -26.73099109 831.96513243 15.02337646 866.25646973 C15.53271729 866.66333008 16.04205811 867.07019043 16.5668335 867.48937988 C42.81631909 888.48119073 58.11553526 915.90976324 62.51947021 949.17053223 C67.1270168 990.59782053 52.97129166 1033.15271392 27.46087646 1065.75646973 C23.04910645 1071.24294246 18.32852472 1076.44933897 13.51165771 1081.58068848 C11.42676561 1083.82268391 9.43227441 1086.10322322 7.46087646 1088.44396973 C3.36741366 1093.14709721 -1.27104066 1097.17962155 -5.97662354 1101.25646973 C-6.94470947 1102.11240723 -7.91279541 1102.96834473 -8.91021729 1103.85021973 C-55.25391664 1144.3917644 -115.12396823 1168.53993495 -175.97662354 1175.25646973 C-176.85802002 1175.36088379 -177.7394165 1175.46529785 -178.64752197 1175.57287598 C-214.59223265 1179.68679433 -252.26886944 1179.13351529 -287.97662354 1173.25646973 C-288.63950378 1173.14756409 -289.30238403 1173.03865845 -289.98535156 1172.92645264 C-299.7066231 1171.30874218 -309.35262471 1169.37893629 -318.97662354 1167.25646973 C-320.69244629 1166.88014404 -320.69244629 1166.88014404 -322.44293213 1166.49621582 C-398.85389624 1149.37778199 -472.31075284 1113.36944059 -534.13726807 1065.66955566 C-535.99921782 1064.23911165 -537.87541762 1062.82907994 -539.75396729 1061.42053223 C-546.96932538 1055.95714911 -553.22162468 1050.30040742 -558.97662354 1043.25646973 C-559.883479 1042.16012207 -559.883479 1042.16012207 -560.80865479 1041.04162598 C-562.89635837 1038.4704542 -564.93712188 1035.86608167 -566.97662354 1033.25646973 C-568.04026283 1031.91128891 -569.10407962 1030.56624843 -570.16802979 1029.22131348 C-587.66361651 1007.01791221 -603.59490234 983.59357244 -617.97662354 959.25646973 C-618.43714111 958.47964844 -618.89765869 957.70282715 -619.37213135 956.90246582 C-663.53089809 882.0383743 -691.70064851 798.29860541 -706.17974854 653.74475098 C-706.18677013 652.29464182 -706.19385695 650.84453298 -706.20100403 649.39442444 C-706.22040469 644.78593501 -706.22543807 640.17749588 -706.22662354 635.56896973 C-706.22706539 634.78392311 -706.22750725 633.9988765 -706.22796249 633.19004059 C-706.23488489 609.74361496 -705.92633137 586.54908947 -702.97662354 563.25646973 C-702.8023831 561.80638234 -702.62907181 560.35618307 -702.456604 558.90588379 C-692.27879146 474.16085056 -665.99944548 390.57955403 -622.52838135 316.8951416 C-620.93644731 314.18815244 -619.3727911 311.4662128 -617.81256104 308.74084473 C-610.16021855 295.4650397 -601.77584259 282.79644431 -592.97662354 270.25646973 C-592.50627686 269.58148438 -592.03593018 268.90649902 -591.55133057 268.21105957 C-575.86030285 245.71127844 -558.43404099 224.53193433 -539.97662354 204.25646973 C-539.19255127 203.38756104 -538.408479 202.51865234 -537.60064697 201.62341309 C-531.07626122 194.43459813 -524.35510889 187.47860565 -517.47784424 180.62731934 C-515.77638576 178.93127246 -514.08041091 177.22987152 -512.38482666 175.5279541 C-506.74953199 169.88922418 -501.05525513 164.42107614 -494.97662354 159.25646973 C-493.36893981 157.80201456 -491.76422639 156.34426078 -490.16412354 154.88146973 C-485.90052336 151.03840675 -481.5311008 147.36324239 -477.06646729 143.75646973 C-474.81701688 141.936434 -472.58188562 140.10428091 -470.35552979 138.25646973 C-461.2406386 130.72098797 -451.8609568 123.66765471 -442.20709229 116.83850098 C-440.03917362 115.30083538 -437.88182472 113.74939322 -435.72662354 112.19396973 C-359.1237504 57.14346673 -269.22877683 21.48409441 -143.722229 0.67834473 C-141.25096542 0.40000139 -138.78113234 0.10860676 -136.31304932 -0.19665527 C-92.09666037 -5.55551761 -44.19026491 -5.6273076 0 0 Z " fill="#80AE31" transform="translate(708.9766235351563,5.7435302734375)"/>
<path d="M0 0 C6.81288035 2.14333521 13.08870202 5.26316839 19.5 8.375 C20.14382629 8.68679199 20.78765259 8.99858398 21.45098877 9.31982422 C68.08508756 31.94812962 112.17146814 60.74645965 151.42138672 94.64355469 C153.05445726 96.04679316 154.69954609 97.43477938 156.34765625 98.8203125 C170.23070797 110.5265585 183.21019678 123.12122188 196.0625 135.9375 C196.87395981 136.74494156 196.87395981 136.74494156 197.70181274 137.56869507 C203.68838078 143.53273967 209.51643771 149.56409443 215 156 C216.45445517 157.60768373 217.91220895 159.21239715 219.375 160.8125 C223.21806298 165.07610017 226.89322734 169.44552273 230.5 173.91015625 C232.32003572 176.15960665 234.15218882 178.39473792 236 180.62109375 C243.53891153 189.74013358 250.59467066 199.12434483 257.42675781 208.78271484 C258.93732589 210.9116688 260.46240515 213.02935757 261.9921875 215.14453125 C312.74179345 285.63570029 347.24148579 367.85840495 377.203125 562.51171875 C377.21010416 563.96210255 377.21714512 565.41248604 377.22424316 566.86286926 C377.24351616 571.47108339 377.24841866 576.07924996 377.25 580.6875 C377.25088371 581.86374435 377.25088371 581.86374435 377.25178528 583.06375122 C377.26422693 606.51252303 376.89242549 629.70007723 374 653 C373.85546387 654.26263672 373.71092773 655.52527344 373.56201172 656.82617188 C363.95897504 740.58421935 337.63569249 823.97849957 292 902 C291.03075366 903.66637807 290.06199872 905.33304207 289.09375 907 C274.54455957 931.84241189 258.04212772 955.5722099 240 978 C239.47374023 978.65774414 238.94748047 979.31548828 238.40527344 979.99316406 C232.4363181 987.44822454 226.42241834 994.81402666 219.96484375 1001.85546875 C218.17061569 1003.81378128 216.42304764 1005.80226137 214.6875 1007.8125 C206.00768381 1017.71564598 196.93750495 1027.18223954 187.65692139 1036.51931763 C186.51197258 1037.67176504 185.36861542 1038.82579596 184.22686768 1039.98141479 C182.603069 1041.62310242 180.97252934 1043.2577809 179.33984375 1044.890625 C178.84652054 1045.39108841 178.35319733 1045.89155182 177.84492493 1046.40718079 C175.55834352 1048.67875776 174.10750041 1049.96416653 171 1051 C172.42916637 1047.96834374 174.10272594 1045.28239445 176.01953125 1042.53515625 C176.6228125 1041.66431396 177.22609375 1040.79347168 177.84765625 1039.89624023 C178.49605469 1038.96110596 179.14445312 1038.02597168 179.8125 1037.0625 C198.39884756 1009.93293066 214.23249837 981.75972454 226 951 C226.42120117 949.90896973 226.84240234 948.81793945 227.27636719 947.69384766 C236.68629911 923.08838436 243.11457273 898.04225613 247 872 C247.14953125 871.06816895 247.2990625 870.13633789 247.453125 869.17626953 C258.7647523 797.78381144 241.32110107 722.14008296 199.67138672 663.1171875 C196.90027616 659.31290798 193.97545575 655.64718026 191 652 C190.22011719 651.01644531 189.44023438 650.03289063 188.63671875 649.01953125 C176.18829043 633.74455467 162.01512672 619.51209598 146 608 C145.00742188 607.26265625 144.01484375 606.5253125 142.9921875 605.765625 C126.91965463 594.17367035 109.43436581 585.17261867 91 578 C89.76515869 577.51490967 89.76515869 577.51490967 88.50537109 577.02001953 C75.29000859 571.90211294 61.9130226 568.60968197 48 566 C46.97729004 565.80776855 45.95458008 565.61553711 44.90087891 565.41748047 C41.79095692 564.84379612 38.6781963 564.29139571 35.5625 563.75 C34.64114258 563.58669189 33.71978516 563.42338379 32.77050781 563.25512695 C16.50436603 560.56084985 0.0304093 560.81363111 -16.40649414 560.81469727 C-20.16238817 560.81251459 -23.91798589 560.79430865 -27.67382812 560.77539062 C-41.14775171 560.74362979 -54.38906491 561.16448143 -67.7739563 562.74020386 C-69.8452126 562.98193514 -71.9171484 563.20154682 -73.99194336 563.41040039 C-103.92832923 566.48430536 -133.29445524 572.74504973 -162.39257812 580.32958984 C-169.31661475 582.10987117 -176.28351565 583.72040165 -183.24365234 585.35253906 C-185.12730718 585.79500608 -187.01042289 586.23977293 -188.89306641 586.68652344 C-351.322454 625.21296676 -351.322454 625.21296676 -419.79907227 583.42651367 C-425.59931427 579.75373413 -430.84276382 575.5263816 -436 571 C-436.86367188 570.28070312 -437.72734375 569.56140625 -438.6171875 568.8203125 C-450.89794885 558.33127317 -459.89235838 544.77293053 -461.30859375 528.44140625 C-461.83988305 512.45442808 -456.43442601 501.12079788 -446 489 C-445.35804688 488.23429687 -444.71609375 487.46859375 -444.0546875 486.6796875 C-432.85477557 474.42566622 -417.14078967 466.30715203 -402 460 C-401.3591748 459.72994141 -400.71834961 459.45988281 -400.05810547 459.18164062 C-392.207275 455.92303305 -384.2176118 453.4220705 -376.01171875 451.22265625 C-375.06127686 450.96564438 -374.11083496 450.70863251 -373.1315918 450.4438324 C-366.06419575 448.5387142 -358.98637228 446.67357589 -351.90625 444.81640625 C-350.88907394 444.5493689 -349.87189789 444.28233154 -348.82389832 444.00720215 C-340.4022453 441.79715169 -340.4022453 441.79715169 -336.38623047 440.75268555 C-323.42883997 437.37953104 -310.63519663 433.70998597 -297.90112305 429.57202148 C-293.84707178 428.25838979 -289.7806329 427.0509142 -285.67578125 425.90625 C-278.48929022 423.89424655 -271.41525696 421.58424445 -264.33911133 419.21826172 C-262.17383421 418.49543802 -260.0059835 417.78073349 -257.83789062 417.06640625 C-251.57532583 414.98840554 -245.41113109 412.87012946 -239.42895508 410.06591797 C-236.18268018 408.64132894 -232.85876538 407.44460786 -229.53125 406.2265625 C-220.69251206 402.96570926 -212.09523749 399.22576028 -203.5 395.375 C-202.32745667 394.85126801 -202.32745667 394.85126801 -201.13122559 394.31695557 C-158.63319973 375.307864 -117.82539616 352.20857952 -83 321 C-82.49984375 320.55624023 -81.9996875 320.11248047 -81.484375 319.65527344 C-69.0932328 308.6418306 -57.17555902 297.11178998 -47 284 C-45.93517855 282.68491312 -44.86863363 281.37122069 -43.80078125 280.05859375 C-24.78422784 256.46117808 -10.32011904 229.89706486 0.09082031 201.47509766 C0.88154103 199.32248577 1.69533816 197.18138721 2.5234375 195.04296875 C5.55880378 186.99464906 7.66403055 178.85209799 9.46655273 170.45727539 C9.86597065 168.61739379 10.28236023 166.78118235 10.70727539 164.94702148 C12.79891608 155.69611808 14.15093749 146.47836461 15.1875 137.0625 C15.31632568 135.89439789 15.31632568 135.89439789 15.44775391 134.70269775 C20.23373634 90.30279624 14.46029556 47.35109503 0.54736328 5.0234375 C0 3 0 3 0 0 Z " fill="#EA9F3E" transform="translate(900,58)"/>
<path d="M0 0 C0.33 0.66 0.66 1.32 1 2 C-0.167041 4.34636664 -1.38315205 6.52232748 -2.75 8.75 C-3.36246582 9.7543811 -3.36246582 9.7543811 -3.98730469 10.77905273 C-10.23680726 20.80773563 -17.69998299 29.75485943 -25.6875 38.4375 C-26.45271973 39.27003296 -26.45271973 39.27003296 -27.23339844 40.11938477 C-86.4811086 103.18128458 -185.76601201 124.34262728 -265.66723633 146.8269043 C-348.20526023 170.05494468 -442.01131795 197.8903631 -500 271 C-500.41717285 271.53544434 -500.8343457 272.07088867 -501.26416016 272.62255859 C-531.24601923 311.33570378 -547.81456837 359.03651946 -549 408 C-549.03996094 409.10085938 -549.07992187 410.20171875 -549.12109375 411.3359375 C-550.2620056 467.84463047 -529.00050965 523.26214046 -490 564 C-488.33460511 565.66793748 -486.66800053 567.33466827 -485 569 C-484.31421875 569.7321875 -483.6284375 570.464375 -482.921875 571.21875 C-443.99822084 612.10258818 -383.6095583 630.47340302 -328.56132507 632.10171509 C-325.06531632 632.14682447 -321.57051551 632.16447026 -318.07421875 632.16796875 C-316.78304642 632.17206757 -315.49187408 632.17616638 -314.16157532 632.1803894 C-310.71288779 632.18962489 -307.26424954 632.19079094 -303.81555176 632.18867874 C-301.67496586 632.18749306 -299.53438487 632.18803374 -297.39379883 632.18869019 C-279.57932692 632.18751778 -261.79461994 631.99208696 -244 631.0625 C-242.74852676 630.99728653 -242.74852676 630.99728653 -241.47177124 630.93075562 C-232.31125245 630.45635134 -232.31125245 630.45635134 -223.19506836 629.47705078 C-218.26043905 628.83740695 -213.34869406 628.83837157 -208.37890625 628.83203125 C-207.36988754 628.82779648 -206.36086884 628.82356171 -205.3212738 628.81919861 C-202.06830648 628.80934534 -198.81547956 628.80927118 -195.5625 628.8125 C-194.45430908 628.81310425 -193.34611816 628.8137085 -192.2043457 628.81433105 C-176.3914792 628.83783992 -160.703045 628.94361601 -145 631 C-143.95569824 631.13422363 -142.91139648 631.26844727 -141.83544922 631.40673828 C-129.61655625 633.03532284 -117.68953893 634.99599649 -106.08300781 639.23876953 C-104.58668651 639.78559675 -103.08537642 640.31884435 -101.58105469 640.84326172 C-83.28191147 647.22483769 -66.83590563 655.42882511 -52 668 C-51.48743652 668.43425293 -50.97487305 668.86850586 -50.44677734 669.31591797 C-38.81050285 679.28414435 -29.50403446 690.59561586 -22 704 C-21.66226563 704.60295898 -21.32453125 705.20591797 -20.9765625 705.82714844 C-13.69690795 719.0249432 -7.49953321 733.76423715 -7 749 C-8.80106982 746.29839527 -9.8000756 743.90239149 -10.85107422 740.85986328 C-15.61177695 727.15936461 -22.40731581 714.92032664 -32 704 C-32.97646484 702.80890625 -32.97646484 702.80890625 -33.97265625 701.59375 C-44.16813252 689.54974813 -57.17310563 680.42411954 -71 673 C-71.6197168 672.66548828 -72.23943359 672.33097656 -72.87792969 671.98632812 C-129.91583776 641.83646018 -200.30536646 646.55439612 -262.6953125 650.46484375 C-285.81684129 651.89117502 -308.93548723 652.18839007 -332.09277344 652.18530273 C-335.29172352 652.18522096 -338.49053194 652.19226988 -341.68945312 652.20581055 C-359.54334518 652.28008543 -377.25460341 652.26203986 -395 650 C-396.20897949 649.84861572 -397.41795898 649.69723145 -398.66357422 649.54125977 C-401.61913768 649.13624819 -404.55817542 648.68174091 -407.5 648.1875 C-408.53785645 648.01500732 -409.57571289 647.84251465 -410.64501953 647.66479492 C-437.91787207 643.00718808 -464.14472278 635.29146643 -489 623 C-490.21357178 622.40251953 -490.21357178 622.40251953 -491.45166016 621.79296875 C-507.49061479 613.816224 -522.08922072 604.26509391 -536 593 C-536.54446777 592.55994629 -537.08893555 592.11989258 -537.64990234 591.66650391 C-552.70407899 579.38696699 -566.59355529 565.75711495 -578 550 C-579.14662109 548.43572266 -579.14662109 548.43572266 -580.31640625 546.83984375 C-599.25066515 520.266023 -611.55513612 491.06088301 -618.5 459.1875 C-618.74322998 458.0744751 -618.98645996 456.9614502 -619.23706055 455.81469727 C-621.93602106 442.61923215 -622.21027626 429.36342261 -622.1875 415.9375 C-622.18656342 415.21667236 -622.18562683 414.49584473 -622.18466187 413.75317383 C-622.03517883 360.37521147 -605.35816745 308.40919093 -571 267 C-570.50918945 266.40767578 -570.01837891 265.81535156 -569.51269531 265.20507812 C-559.56593445 253.29375453 -548.95387094 241.92744418 -537 232 C-536.51917969 231.58411621 -536.03835938 231.16823242 -535.54296875 230.73974609 C-512.7510967 211.02804052 -486.20939782 195.03556734 -459.10351562 182.01708984 C-456.83612625 180.92076392 -454.58240941 179.79878968 -452.328125 178.67578125 C-437.89373466 171.55954068 -423.03844747 165.70601408 -408 160 C-407.08766602 159.64728027 -406.17533203 159.29456055 -405.23535156 158.93115234 C-380.49027737 149.36515 -354.7595023 141.72580927 -329.03515625 135.28515625 C-323.92311788 134.00197652 -318.87024643 132.54319173 -313.8125 131.0625 C-304.2325805 128.26977869 -294.57046426 125.85725688 -284.88330078 123.46728516 C-278.06660202 121.78117261 -271.30945355 120.00545368 -264.57421875 118.01953125 C-259.73691803 116.63971105 -254.86965971 115.38507151 -250 114.125 C-138.68269205 85.61915461 -138.68269205 85.61915461 -38 32 C-36.96528564 31.27224365 -36.96528564 31.27224365 -35.90966797 30.52978516 C-22.87996177 21.34509014 -11.22062481 11.30333212 0 0 Z " fill="#0E3332" transform="translate(775,187)"/>
<path d="M0 0 C3.73180771 -0.00217429 7.46331314 -0.02035122 11.19506836 -0.03930664 C31.9654647 -0.09011292 52.45063181 0.80004777 72.83374023 4.99780273 C73.48863434 5.12913605 74.14352844 5.26046936 74.81826782 5.39578247 C84.74336375 7.38704357 94.29900344 9.77718403 103.83374023 13.18530273 C105.4082496 13.70530251 106.98384487 14.22202164 108.56030273 14.73608398 C133.03609146 22.83062611 155.90823655 34.74218012 175.83374023 51.18530273 C176.8044043 51.95358398 177.77506836 52.72186523 178.77514648 53.51342773 C193.79413738 65.71276133 208.27631338 79.69556272 219.58129883 95.44555664 C220.92965148 97.3185315 222.31255663 99.16310732 223.69702148 101.00952148 C244.23796212 128.81735174 259.46552728 161.64068235 267.83374023 195.18530273 C268.04482422 196.02867187 268.2559082 196.87204102 268.47338867 197.7409668 C280.13529164 245.67292921 278.80775298 297.36810407 266.38500977 345.0168457 C265.88331378 346.99030174 265.44664812 348.98000252 265.01733398 350.97045898 C256.11431751 391.1845672 236.59727723 431.18191456 213.83374023 465.18530273 C213.26526367 466.03479492 212.69678711 466.88428711 212.11108398 467.75952148 C202.29932613 482.3585546 202.29932613 482.3585546 198.64624023 486.91186523 C196.76601416 489.15519017 196.76601416 489.15519017 195.33764648 491.77124023 C184.25746801 509.55708515 152.9475401 520.66718157 133.50170898 525.22045898 C104.17724389 531.55249967 75.73489993 527.09488493 47.83374023 517.18530273 C47.83374023 516.19530273 47.83374023 515.20530273 47.83374023 514.18530273 C49.70703125 512.71826172 49.70703125 512.71826172 52.33764648 511.18139648 C53.77889893 510.32553955 53.77889893 510.32553955 55.24926758 509.45239258 C56.28776855 508.84862793 57.32626953 508.24486328 58.39624023 507.62280273 C60.52652007 506.35557772 62.65542746 505.08604271 64.78295898 503.81420898 C65.82500488 503.19304199 66.86705078 502.571875 67.94067383 501.93188477 C74.0565558 498.23964682 79.95778848 494.24493705 85.83374023 490.18530273 C86.48971191 489.73509766 87.14568359 489.28489258 87.8215332 488.82104492 C98.4530856 481.50605556 108.80378564 473.84236365 118.86669922 465.76025391 C120.12684969 464.75128894 121.4014452 463.75995256 122.69335938 462.79199219 C127.89381576 458.71893245 130.8163008 453.83613007 134.02124023 448.12280273 C134.57803467 447.1539917 135.1348291 446.18518066 135.70849609 445.18701172 C136.86294953 443.1750016 138.01177125 441.15974997 139.1550293 439.14135742 C140.72504089 436.37671223 142.31713821 433.62649913 143.91967773 430.88061523 C186.69272199 357.3578996 210.57543146 271.22052479 193.83374023 186.18530273 C193.66503418 185.29858887 193.49632812 184.411875 193.32250977 183.49829102 C188.02537 156.01081377 179.09400427 127.67815207 161.83374023 105.18530273 C161.19049805 104.33581055 160.54725586 103.48631836 159.88452148 102.61108398 C151.00972577 91.22554057 141.31574433 80.51431257 129.77124023 71.81030273 C129.02737061 71.24722412 128.28350098 70.68414551 127.51708984 70.10400391 C120.83316155 65.0969496 114.0031528 60.46532646 106.83374023 56.18530273 C106.14699219 55.77151367 105.46024414 55.35772461 104.75268555 54.93139648 C94.15858456 48.60796873 83.66683048 43.68460276 71.83374023 40.18530273 C71.09526855 39.96003906 70.35679687 39.73477539 69.59594727 39.50268555 C23.36997872 25.6812294 -27.41789877 32.14611091 -74.16625977 40.18530273 C-76.05403236 40.4967072 -77.94203212 40.80673963 -79.83032227 41.11499023 C-90.42875904 42.87308961 -100.96358448 44.92496618 -111.50073242 47.01318359 C-195.34954841 63.62125379 -295.57768654 82.19107635 -387.16625977 31.18530273 C-398.54961264 23.41859699 -398.54961264 23.41859699 -400.16625977 20.18530273 C-396.16222057 21.64533913 -392.7375786 23.5938057 -389.10375977 25.81030273 C-337.57407248 55.94912953 -273.11418133 48.11648914 -217.16625977 37.18530273 C-216.38514832 37.03385803 -215.60403687 36.88241333 -214.79925537 36.72637939 C-195.56691619 32.99638575 -176.46691103 28.92252678 -157.48950195 24.05395508 C-145.73085625 21.04041031 -133.9098383 18.38354665 -122.04760742 15.81274414 C-118.7362024 15.09165357 -115.42965343 14.35044987 -112.1237793 13.60449219 C-109.24081008 12.95708742 -106.35413813 12.32699068 -103.4675293 11.69604492 C-101.87308239 11.34217446 -100.28039972 10.9802959 -98.68920898 10.61206055 C-85.08424746 7.46367929 -71.43923401 5.25585711 -57.60375977 3.43530273 C-56.39786194 3.27507126 -56.39786194 3.27507126 -55.16760254 3.11160278 C-36.73361236 0.68314051 -18.58713498 -0.00120751 0 0 Z " fill="#0E3332" transform="translate(875.166259765625,617.814697265625)"/>
<path d="M0 0 C2.20004076 2.20004076 2.63085428 3.53403702 3.625 6.4375 C12.4999171 29.11421833 37.33781823 45.29614827 58.88671875 54.75 C82.24576926 64.55930862 106.10712041 68.37987911 131.27246094 68.20581055 C133.99684057 68.18752121 136.72087764 68.18530214 139.4453125 68.18554688 C153.96315764 68.15720775 168.33555444 67.53174319 182.75 65.6875 C183.77601318 65.55706299 184.80202637 65.42662598 185.85913086 65.29223633 C193.81150398 64.23976164 201.63247402 62.81291295 209.4765625 61.1484375 C213.58592273 60.27795195 217.70485175 59.48728267 221.8359375 58.7265625 C238.36878508 55.66600783 254.6691572 52.00156221 270.9871521 47.95610046 C271.76611847 47.76304825 272.54508484 47.56999603 273.34765625 47.37109375 C274.13105377 47.17687332 274.91445129 46.98265289 275.72158813 46.782547 C288.96377506 43.51285768 302.2702528 40.51045343 315.56793213 37.47624207 C319.91904255 36.48202531 324.26451301 35.46757864 328.60546875 34.4296875 C339.05870985 31.94664124 349.44697621 30.04822106 360.10546875 28.67578125 C363.41610236 28.24476425 366.67303694 27.69144564 369.94921875 27.05078125 C409.94504139 19.65680061 453.85185056 18.6364006 494 25 C495.92433218 25.27057869 497.84881199 25.54010947 499.7734375 25.80859375 C551.14476257 33.41560227 595.94541899 57.3144306 633 93 C633.7940625 93.7528125 634.588125 94.505625 635.40625 95.28125 C640.24191707 99.96340383 644.51435464 105.03890909 648.67822266 110.32324219 C649.61125755 111.50685571 650.54887767 112.68686167 651.48974609 113.86425781 C680.10627829 149.75617955 698.41656429 192.03117094 707 237 C707.1767627 237.90911133 707.35352539 238.81822266 707.53564453 239.75488281 C708.68322096 245.81927651 709.55825743 251.85427616 710.125 258 C710.20991699 258.91410645 710.29483398 259.82821289 710.38232422 260.77001953 C711.38237007 272.82489821 711.18012542 284.91496991 711 297 C710.67 297 710.34 297 710 297 C709.93530518 296.18660156 709.87061035 295.37320312 709.80395508 294.53515625 C705.17545171 238.02371259 687.23908995 183.42025176 651 139 C649.83017578 137.52466797 649.83017578 137.52466797 648.63671875 136.01953125 C636.18829043 120.74455467 622.01512672 106.51209598 606 95 C605.00742188 94.26265625 604.01484375 93.5253125 602.9921875 92.765625 C586.91965463 81.17367035 569.43436581 72.17261867 551 65 C549.76515869 64.51490967 549.76515869 64.51490967 548.50537109 64.02001953 C535.29000859 58.90211294 521.9130226 55.60968197 508 53 C506.97729004 52.80776855 505.95458008 52.61553711 504.90087891 52.41748047 C501.79095692 51.84379612 498.6781963 51.29139571 495.5625 50.75 C494.64114258 50.58669189 493.71978516 50.42338379 492.77050781 50.25512695 C476.50436603 47.56084985 460.0304093 47.81363111 443.59350586 47.81469727 C439.83761183 47.81251459 436.08201411 47.79430865 432.32617188 47.77539062 C418.85224829 47.74362979 405.61093509 48.16448143 392.2260437 49.74020386 C390.1547874 49.98193514 388.0828516 50.20154682 386.00805664 50.41040039 C356.07167077 53.48430536 326.70554476 59.74504973 297.60742188 67.32958984 C290.68338525 69.10987117 283.71648435 70.72040165 276.75634766 72.35253906 C274.87269282 72.79500608 272.98957711 73.23977293 271.10693359 73.68652344 C108.677546 112.21296676 108.677546 112.21296676 40.20092773 70.42651367 C34.40068573 66.75373413 29.15723618 62.5263816 24 58 C23.13632812 57.28070312 22.27265625 56.56140625 21.3828125 55.8203125 C10.50992014 46.53373878 0.62763333 33.63041194 -1 19 C-1.09144278 16.25940601 -1.14014604 13.55140829 -1.125 10.8125 C-1.12886719 10.10158203 -1.13273437 9.39066406 -1.13671875 8.65820312 C-1.13078494 5.50438116 -1.00443535 3.01330605 0 0 Z " fill="#CE6A2F" transform="translate(440,571)"/>
<path d="M0 0 C6.02206388 9.03309582 0.88627662 26.8347824 -1 37 C-7.35337977 67.16438376 -21.76921964 91.80993044 -43 114 C-43.87527344 114.928125 -44.75054688 115.85625 -45.65234375 116.8125 C-61.27921798 132.96715412 -80.53789315 145.90874188 -100 157 C-100.72993164 157.42104004 -101.45986328 157.84208008 -102.21191406 158.27587891 C-147.92319706 184.5459595 -199.4128495 200.92072834 -250 215 C-251.54184894 215.4368572 -253.08352083 215.87433983 -254.625 216.3125 C-264.91337945 219.22062209 -275.25659654 221.91423096 -285.60546875 224.59765625 C-289.9086342 225.71389931 -294.20603678 226.84889306 -298.5 228 C-304.74330807 229.67181916 -310.99545711 231.3082384 -317.25 232.9375 C-331.45273402 236.63424372 -331.45273402 236.63424372 -345.64404297 240.37451172 C-347.19482161 240.7862314 -348.7459209 241.19674555 -350.29736328 241.60595703 C-400.11136662 254.78189132 -449.42760969 269.69436921 -496 292 C-496.74636719 292.35658691 -497.49273437 292.71317383 -498.26171875 293.08056641 C-502.88535731 295.30455391 -507.45310165 297.62351118 -512 300 C-512.73541016 300.38027344 -513.47082031 300.76054687 -514.22851562 301.15234375 C-538.24864229 313.65159503 -561.65479323 328.9207955 -581.3984375 347.546875 C-583.59518404 349.61828165 -585.82823579 351.60430262 -588.125 353.5625 C-596.63452497 360.97970499 -604.02814929 369.14094142 -611 378 C-611.76828125 378.93972656 -612.5365625 379.87945312 -613.328125 380.84765625 C-646.65475701 422.50594627 -660.88930302 472.19515714 -662.5625 524.75 C-662.60568359 526.03132812 -662.64886719 527.31265625 -662.69335938 528.6328125 C-662.79821334 531.75513066 -662.90038018 534.87751121 -663 538 C-663.33 538 -663.66 538 -664 538 C-664.75086689 473.90445853 -664.75086689 473.90445853 -658 449 C-657.58289556 447.27416985 -657.16916986 445.5475215 -656.7578125 443.8203125 C-652.13979082 424.79528481 -645.2144676 407.25059237 -636 390 C-635.64824707 389.33516602 -635.29649414 388.67033203 -634.93408203 387.98535156 C-627.40612843 373.84971555 -618.40510133 361.17657915 -608 349 C-607.36320312 348.25105469 -606.72640625 347.50210937 -606.0703125 346.73046875 C-595.12121556 334.22634442 -583.2728042 322.03327737 -570 312 C-568.82639827 311.08648279 -567.65325364 310.17237814 -566.48046875 309.2578125 C-497.85537062 256.25986641 -413.12979004 232.80024602 -330.60341358 211.33621597 C-272.01890348 196.17421093 -272.01890348 196.17421093 -214 179 C-213.18921997 178.74450378 -212.37843994 178.48900757 -211.54309082 178.22576904 C-137.51329901 154.8552599 -52.44679133 121.83725088 -14.03125 49.35546875 C-7.07931437 35.60633352 -1.83976724 19.31755605 -0.375 3.9375 C-0.25125 2.638125 -0.1275 1.33875 0 0 Z " fill="#3C7B2E" transform="translate(816,76)"/>
<path d="M0 0 C0.33 0 0.66 0 1 0 C1.08975098 0.5762915 1.17950195 1.15258301 1.27197266 1.74633789 C7.9826335 44.12879923 21.90036793 83.21955585 49 117 C49.804375 118.00804687 50.60875 119.01609375 51.4375 120.0546875 C61.94904934 132.96597961 73.80461298 144.84378375 87 155 C87.96679688 155.78375 88.93359375 156.5675 89.9296875 157.375 C128.73940415 188.59485124 178.08099666 205.06448735 227 211 C227.7753862 211.09527985 228.5507724 211.19055969 229.34965515 211.28872681 C246.64358463 213.33280332 263.92291531 213.31686584 281.3067627 213.25734329 C283.71338231 213.24992017 286.11998206 213.24629389 288.52661133 213.24362183 C318.05122495 213.20418561 347.6231501 212.8067551 377.0847168 210.71923828 C391.31354691 209.74086799 405.55527429 209.75421196 419.8125 209.75 C420.49783436 209.74955814 421.18316872 209.74911629 421.88927078 209.74866104 C473.3536267 209.73128544 529.24563245 212.7086627 571 247 C571.50934082 247.40686035 572.01868164 247.8137207 572.54345703 248.23291016 C597.25805603 267.99726651 613.76545346 294.46927763 617.73046875 326.15234375 C618.28670735 334.09285128 618.14403671 342.04597296 618 350 C616.34710844 346.97080516 615.41171645 344.08479185 614.58984375 340.73828125 C606.95160321 310.8548063 591.05275717 284.09783624 563.93359375 267.7109375 C562.96550781 267.14632813 561.99742187 266.58171875 561 266 C559.37771484 265.02933594 559.37771484 265.02933594 557.72265625 264.0390625 C521.47191702 242.59075142 480.83567701 235.85778526 439.16796875 235.83203125 C437.57611546 235.8280759 435.98426262 235.82393092 434.39241028 235.8196106 C430.18788607 235.81037234 425.98340226 235.80920842 421.77886963 235.81132126 C419.17541373 235.8125055 416.57196187 235.81196711 413.96850586 235.81130981 C387.36856056 235.81275326 360.71767324 235.87997513 334.20057678 238.25022888 C325.35694726 239.01222042 316.55319884 239.16353949 307.68359375 239.16796875 C306.13582837 239.17119569 304.58806327 239.17456073 303.04029846 239.17805481 C299.81225887 239.18399886 296.58424584 239.18589973 293.35620117 239.18530273 C290.08954305 239.18522167 286.82302575 239.1921399 283.55639648 239.20581055 C266.26190131 239.27712008 249.17978989 239.26143788 232 237 C229.95115872 236.79180119 227.9017448 236.58908172 225.8515625 236.39453125 C171.18858468 230.54233517 116.888119 208.57460984 76.25 171.0625 C74.27210442 169.24942906 72.24803183 167.52960986 70.1875 165.8125 C48.68643617 146.94510062 31.88299378 121.84892613 20 96 C19.46890625 94.85402344 18.9378125 93.70804688 18.390625 92.52734375 C5.22214966 62.96615296 -0.81454515 32.26434214 0 0 Z " fill="#D5F64D" transform="translate(153,625)"/>
<path d="M0 0 C1.09326172 2.18530273 1.09326172 2.18530273 1.9296875 4.93359375 C2.24711914 5.96033203 2.56455078 6.98707031 2.89160156 8.04492188 C3.37838379 9.72424805 3.37838379 9.72424805 3.875 11.4375 C4.39271973 13.18836914 4.39271973 13.18836914 4.92089844 14.97460938 C21.00258274 70.52410909 24.66435468 132.44719543 5.71826172 187.89257812 C4.94277181 190.16791085 4.19259399 192.45091148 3.44140625 194.734375 C-13.79349349 246.31745186 -46.84057173 294.59064794 -90 328 C-91.85730404 329.57965191 -93.71127133 331.16323257 -95.5625 332.75 C-100.7063577 337.04329856 -106.02103394 341.05698291 -111.4375 345 C-112.20715088 345.56428711 -112.97680176 346.12857422 -113.76977539 346.70996094 C-117.39048867 349.31620745 -120.70049348 351.63236373 -125 353 C-122.20409608 349.15563211 -119.05630611 346.21870449 -115.4765625 343.1484375 C-107.47912648 336.21059868 -99.78374766 329.14335953 -93 321 C-92.11439219 319.99656307 -91.22612661 318.99546866 -90.3359375 317.99609375 C-60.50030436 284.28295862 -40.89216195 243.13431556 -30.5625 199.5 C-30.22810913 198.09028931 -30.22810913 198.09028931 -29.88696289 196.65209961 C-25.88869904 178.52036623 -24.50457617 160.54983059 -24.60888672 142.01464844 C-24.62495554 138.63435331 -24.60893849 135.25525913 -24.58984375 131.875 C-24.57037848 112.54729843 -26.38700101 93.56229178 -30.625 74.6875 C-30.8415625 73.67623047 -31.058125 72.66496094 -31.28125 71.62304688 C-32.06214804 68.01500873 -32.83193342 64.50419975 -34 61 C-36.26420577 59.8661844 -38.43022477 58.93096576 -40.7890625 58.0390625 C-41.48454193 57.76661713 -42.18002136 57.49417175 -42.89657593 57.21347046 C-44.3791977 56.63508243 -45.86394837 56.06212721 -47.35058594 55.49414062 C-49.57162355 54.64539718 -51.7862052 53.78149646 -54 52.9140625 C-63.24294738 49.31617317 -72.55975625 46.04317969 -82 43 C-77.45822819 33.35522767 -67.20536563 26.45179959 -59 20 C-57.9790625 19.17371094 -56.958125 18.34742187 -55.90625 17.49609375 C-42.88292857 7.06548861 -17.03920876 -11.52189636 0 0 Z " fill="#0F3332" transform="translate(900,58)"/>
<path d="M0 0 C0.66 0 1.32 0 2 0 C1.51223981 12.41221333 0.8120307 24.70464426 -1 37 C-1.11682129 37.80566406 -1.23364258 38.61132812 -1.35400391 39.44140625 C-9.59128184 94.28681461 -35.38336059 143.84849352 -72 185 C-72.47373047 185.53689453 -72.94746094 186.07378906 -73.43554688 186.62695312 C-84.86649295 199.53184835 -97.4287396 211.36829925 -111 222 C-112.34792275 223.07779179 -113.69555524 224.15594665 -115.04296875 225.234375 C-125.33187147 233.41232748 -135.92508911 240.92607116 -147 248 C-147.59119629 248.37850098 -148.18239258 248.75700195 -148.79150391 249.14697266 C-162.07000221 257.5983417 -175.84930383 265.16119769 -190.00537109 272.02929688 C-191.94277643 272.97215166 -193.87173147 273.93081965 -195.80078125 274.890625 C-219.90541186 286.72490847 -245.39627181 295.10827103 -271 303 C-272.11922852 303.34546875 -273.23845703 303.6909375 -274.39160156 304.046875 C-311.52856945 315.40559661 -349.92794627 324.27094247 -388.40332031 329.62792969 C-394.9670676 330.56842902 -401.48756687 331.75764692 -408 333 C-408.7636084 333.14405273 -409.5272168 333.28810547 -410.31396484 333.43652344 C-422.82194119 335.8274197 -435.42229617 338.45536002 -446.8125 344.375 C-448.3903125 345.179375 -448.3903125 345.179375 -450 346 C-450.66 345.67 -451.32 345.34 -452 345 C-441.87074698 336.42497099 -430.24633522 330.03877175 -418 325 C-416.28490234 324.29423828 -416.28490234 324.29423828 -414.53515625 323.57421875 C-407.14525185 320.62970599 -399.67140851 318.26388602 -391.98828125 316.2109375 C-390.56515625 315.82668861 -390.56515625 315.82668861 -389.11328125 315.43467712 C-382.05166818 313.53390897 -374.97976705 311.672298 -367.90625 309.81640625 C-366.88904373 309.54935379 -365.87183746 309.28230133 -364.82380676 309.00715637 C-356.38631531 306.79300869 -356.38631531 306.79300869 -352.38623047 305.75268555 C-339.42883997 302.37953104 -326.63519663 298.70998597 -313.90112305 294.57202148 C-309.84707178 293.25838979 -305.7806329 292.0509142 -301.67578125 290.90625 C-294.48929022 288.89424655 -287.41525696 286.58424445 -280.33911133 284.21826172 C-278.17383421 283.49543802 -276.0059835 282.78073349 -273.83789062 282.06640625 C-267.57532583 279.98840554 -261.41113109 277.87012946 -255.42895508 275.06591797 C-252.18268018 273.64132894 -248.85876538 272.44460786 -245.53125 271.2265625 C-236.69251206 267.96570926 -228.09523749 264.22576028 -219.5 260.375 C-218.32745667 259.85126801 -218.32745667 259.85126801 -217.13122559 259.31695557 C-174.63319973 240.307864 -133.82539616 217.20857952 -99 186 C-98.49984375 185.55624023 -97.9996875 185.11248047 -97.484375 184.65527344 C-85.0932328 173.6418306 -73.17555902 162.11178998 -63 149 C-61.93517855 147.68491312 -60.86863363 146.37122069 -59.80078125 145.05859375 C-40.78422784 121.46117808 -26.32011904 94.89706486 -15.90917969 66.47509766 C-15.11845897 64.32248577 -14.30466184 62.18138721 -13.4765625 60.04296875 C-10.38557834 51.84717743 -8.29496003 43.56478805 -6.44091797 35.02246094 C-6.0372749 33.17097746 -5.61526521 31.3235228 -5.19140625 29.4765625 C-2.99752127 19.72343651 -1.48524195 9.88054574 0 0 Z " fill="#FCD83E" transform="translate(916,193)"/>
<path d="M0 0 C0.66 0 1.32 0 2 0 C1.67 5.28 1.34 10.56 1 16 C0.01 16.33 -0.98 16.66 -2 17 C-1.85848172 14.9163691 -1.71162064 12.83310062 -1.5625 10.75 C-1.48128906 9.58984375 -1.40007813 8.4296875 -1.31640625 7.234375 C-1.06752213 4.69022624 -0.71885058 2.44046752 0 0 Z " fill="#E8C53D" transform="translate(916,193)"/>
<path d="M0 0 C1.79275866 3.11910856 2.34290718 5.67682428 2.625 9.25 C2.69976563 10.14203125 2.77453125 11.0340625 2.8515625 11.953125 C2.92503906 12.96632813 2.92503906 12.96632813 3 14 C1.13591522 11.20387283 0.51163882 9.62830652 -0.1875 6.4375 C-0.36667969 5.65246094 -0.54585937 4.86742187 -0.73046875 4.05859375 C-1 2 -1 2 0 0 Z " fill="#20423A" transform="translate(765,922)"/>
<path d="M0 0 C4.10958767 1.45044271 7.43258745 3.51110752 11 6 C10.67 6.99 10.34 7.98 10 9 C8.33043913 7.69118353 6.66441696 6.37785174 5 5.0625 C4.071875 4.33160156 3.14375 3.60070312 2.1875 2.84765625 C1.465625 2.23792969 0.74375 1.62820313 0 1 C0 0.67 0 0.34 0 0 Z " fill="#1D3935" transform="translate(475,638)"/>
<path d="M0 0 C0.66 0.66 1.32 1.32 2 2 C-0.31 3.65 -2.62 5.3 -5 7 C-5.66 6.67 -6.32 6.34 -7 6 C-4.69 4.02 -2.38 2.04 0 0 Z " fill="#204034" transform="translate(782,404)"/>
<path d="M0 0 C0.66 0.33 1.32 0.66 2 1 C2 1.66 2 2.32 2 3 C0.03533587 4.06775224 -1.96855359 5.06553465 -4 6 C-4.66 5.67 -5.32 5.34 -6 5 C-4.02 3.35 -2.04 1.7 0 0 Z " fill="#F1CB40" transform="translate(470,533)"/>
</svg>
